<svg xmlns="http://www.w3.org/2000/svg" width="48" height="48" viewBox="0 0 48 48"><g transform="translate(0.123 0.001)"><g transform="translate(-0.123 -0.001)" fill="none"><path d="M24,0a24.268,24.268,0,0,1,9.9,2.13A24.012,24.012,0,1,1,24,0Z" stroke="none"/><path d="M 24 2 C 21.02914047241211 2 18.1481990814209 2.581401824951172 15.43722152709961 3.728050231933594 C 12.81771850585938 4.836009979248047 10.46474075317383 6.422561645507812 8.443649291992188 8.443649291992188 C 6.422561645507812 10.46474075317383 4.836009979248047 12.81771850585938 3.728050231933594 15.43722152709961 C 2.581401824951172 18.1481990814209 2 21.02914047241211 2 24 C 2 26.97085952758789 2.581401824951172 29.8518009185791 3.728050231933594 32.56278228759766 C 4.836009979248047 35.18228149414062 6.422561645507812 37.53525924682617 8.443649291992188 39.55635070800781 C 10.46474075317383 41.57743835449219 12.81771850585938 43.16399002075195 15.43722152709961 44.27194976806641 C 18.1481990814209 45.41860198974609 21.02914047241211 46 24 46 C 26.97085952758789 46 29.8518009185791 45.41860198974609 32.56278228759766 44.27194976806641 C 35.18228149414062 43.16399002075195 37.53525924682617 41.57743835449219 39.55635070800781 39.55635070800781 C 41.57743835449219 37.53525924682617 43.16399002075195 35.18228149414062 44.27194976806641 32.56278228759766 C 45.41860198974609 29.8518009185791 46 26.97085952758789 46 24 C 46 19.65047073364258 44.73778915405273 15.43930816650391 42.34981918334961 11.82176971435547 C 40.03569793701172 8.316120147705078 36.83634185791016 5.598438262939453 33.09614944458008 3.961891174316406 C 30.08559036254883 2.641738891601562 27.11021041870117 2 24 2 M 24 0 C 27.41975021362305 0 30.67243957519531 0.715240478515625 33.89933013916016 2.1302490234375 C 42.08409118652344 5.711559295654297 48 14.16490936279297 48 24 C 48 37.25482940673828 37.25482940673828 48 24 48 C 10.74517059326172 48 0 37.25482940673828 0 24 C 0 10.74517059326172 10.74517059326172 0 24 0 Z" stroke="none" fill="#e32138"/></g><path d="M11.785,0c-3.2,0-3.6.015-4.858.071A8.69,8.69,0,0,0,4.066.619,5.771,5.771,0,0,0,1.978,1.978,5.75,5.75,0,0,0,.619,4.066,8.665,8.665,0,0,0,.071,6.927C.012,8.184,0,8.584,0,11.785s.015,3.6.071,4.858A8.7,8.7,0,0,0,.619,19.5a5.78,5.78,0,0,0,1.359,2.088,5.763,5.763,0,0,0,2.088,1.359,8.7,8.7,0,0,0,2.861.548c1.257.059,1.657.071,4.858.071s3.6-.015,4.858-.071a8.721,8.721,0,0,0,2.861-.548A6.023,6.023,0,0,0,22.952,19.5a8.7,8.7,0,0,0,.548-2.861c.059-1.257.071-1.657.071-4.858s-.015-3.6-.071-4.858a8.716,8.716,0,0,0-.548-2.861,5.784,5.784,0,0,0-1.359-2.088A5.742,5.742,0,0,0,19.5.619,8.67,8.67,0,0,0,16.644.071C15.387.012,14.987,0,11.785,0Zm0,2.121c3.146,0,3.521.016,4.763.07a6.493,6.493,0,0,1,2.187.408,3.878,3.878,0,0,1,2.237,2.236,6.507,6.507,0,0,1,.406,2.187c.056,1.243.069,1.617.069,4.763s-.015,3.521-.073,4.763a6.632,6.632,0,0,1-.413,2.187,3.742,3.742,0,0,1-.883,1.357,3.677,3.677,0,0,1-1.355.88,6.555,6.555,0,0,1-2.195.406c-1.251.056-1.619.069-4.772.069s-3.522-.015-4.772-.073a6.682,6.682,0,0,1-2.2-.413,3.65,3.65,0,0,1-1.354-.883,3.578,3.578,0,0,1-.884-1.355,6.688,6.688,0,0,1-.412-2.195c-.044-1.237-.06-1.619-.06-4.757S2.093,8.249,2.137,7A6.681,6.681,0,0,1,2.55,4.8a3.493,3.493,0,0,1,.884-1.356,3.486,3.486,0,0,1,1.354-.882,6.523,6.523,0,0,1,2.181-.413c1.252-.044,1.62-.059,4.772-.059l.044.029Zm0,3.612a6.052,6.052,0,1,0,6.052,6.052A6.051,6.051,0,0,0,11.785,5.733Zm0,9.98a3.928,3.928,0,1,1,3.928-3.928A3.927,3.927,0,0,1,11.785,15.714ZM19.491,5.495a1.414,1.414,0,1,1-1.414-1.413A1.415,1.415,0,0,1,19.491,5.495Z" transform="translate(12.092 12.214)" fill="#e32138"/></g></svg>