<svg xmlns="http://www.w3.org/2000/svg" width="47" height="48" viewBox="0 0 47 48"><g transform="translate(-0.135 0.001)"><g transform="translate(13.282 13.008)"><path d="M21.131,22.69v8.287H16.6V23.245c0-1.942-.655-3.268-2.294-3.268a2.5,2.5,0,0,0-2.324,1.757,3.473,3.473,0,0,0-.15,1.171v8.071H7.3s.061-13.1,0-14.452h4.53v2.048c-.009.015-.021.032-.03.047h.03v-.047a4.465,4.465,0,0,1,4.083-2.388C18.9,16.185,21.131,18.25,21.131,22.69ZM2.564,9.558A2.427,2.427,0,0,0,0,12.054a2.414,2.414,0,0,0,2.5,2.5h.03a2.428,2.428,0,0,0,2.562-2.5A2.418,2.418,0,0,0,2.564,9.558ZM.269,30.976H4.8V16.524H.269Z" transform="translate(0 -9.558)" fill="#e32138"/></g><g transform="translate(0.135 -0.001)" fill="none" stroke="#e32138" stroke-width="2"><ellipse cx="23.5" cy="24" rx="23.5" ry="24" stroke="none"/><ellipse cx="23.5" cy="24" rx="22.5" ry="23" fill="none"/></g></g></svg>