<?xml version="1.0" encoding="utf-8"?>
<!DOCTYPE svg PUBLIC "-//W3C//DTD SVG 1.1//EN" "http://www.w3.org/Graphics/SVG/1.1/DTD/svg11.dtd">
<svg version="1.1" id="Layer_1" xmlns="http://www.w3.org/2000/svg" xmlns:xlink="http://www.w3.org/1999/xlink" x="0px" y="0px" viewBox="0 0 170 84" enable-background="new 0 0 170 84" xml:space="preserve">
<g>
	<g>
		<path fill="#E32138" d="M20.519,53.7754c0-4.5742-3.7524-8.3047-8.3677-8.3047H2.0898v26.5166h10.9448
			c4.6133,0,8.3691-3.7295,8.3691-8.3096c0-2.0352-0.7715-4.0146-2.1479-5.54C20.0845,56.834,20.519,55.333,20.519,53.7754
			 M8.8301,51.2441h3.3213c1.4331,0,2.5947,1.1357,2.5947,2.5312c0,1.3984-1.1616,2.5352-2.5947,2.5352H8.8301V51.2441z
			 M13.0347,66.2148H8.8301v-5.0801h3.3213h0.8833c1.4307,0,2.5947,1.1484,2.5947,2.543
			C15.6294,65.0703,14.4653,66.2148,13.0347,66.2148"/>
		<path fill="#E32138" d="M35.8364,44.9824c-7.3813,0-13.3818,6.2246-13.3818,13.8574c0,7.6602,6.0005,13.8711,13.3818,13.8711
			c7.3789,0,13.3779-6.2109,13.3779-13.8711C49.2144,51.207,43.2153,44.9824,35.8364,44.9824 M35.8364,65.5107
			c-3.4082,0-6.1816-2.9834-6.1816-6.6709c0-3.666,2.7734-6.6523,6.1816-6.6523c3.4058,0,6.1782,2.9863,6.1782,6.6523
			C42.0146,62.5273,39.2422,65.5107,35.8364,65.5107"/>
		<path fill="#E32138" d="M65.6758,62.9248h3.1411v1.4541c-1.1636,0.7305-2.5503,1.1318-3.9473,1.1318
			c-3.9062,0-7.084-2.9834-7.084-6.6709c0-3.666,3.1777-6.6523,7.084-6.6523c1.8535,0,3.6099,0.6719,4.939,1.8877l0.6978,0.6416
			l4.8613-5.3164l-0.6968-0.6387c-2.6631-2.4375-6.1411-3.7793-9.8013-3.7793c-7.8735,0-14.2852,6.2246-14.2852,13.8574
			c0,7.6602,6.4116,13.8711,14.2852,13.8711c1.3438,0,2.665-0.1768,3.9473-0.5391v0.0547h7.2021v-16.498H65.6758V62.9248z"/>
		<polygon fill="#E32138" points="112.9609,53.2598 112.9609,72.2266 121.498,72.2266 121.498,53.2598 129.5566,53.2598 
			129.5566,45.1055 104.8711,45.1055 104.8711,53.2598 		"/>
		<polygon fill="#E32138" points="167.3652,83.5898 151.0273,40.1084 136.3613,40.1084 124.3555,72.1719 133.2461,72.1719 
			143.6758,45.7939 158.4766,83.5898 		"/>
		<path fill="#E32138" d="M102.7949,52.3047l-0.0117-0.0254c-2.2617-4.3379-6.6934-7.2969-11.7832-7.2969
			c-7.3765,0-13.3779,6.2246-13.3779,13.8574c0,7.6602,6.0015,13.8711,13.3779,13.8711c7.377,0,13.3809-6.2109,13.3809-13.8711
			C104.3809,56.4873,103.8086,54.2598,102.7949,52.3047 M91,65.5107c-3.4062,0-6.1782-2.9834-6.1782-6.6709
			c0-3.666,2.772-6.6523,6.1782-6.6523c3.4043,0,6.1816,2.9863,6.1816,6.6523C97.1816,62.5273,94.4043,65.5107,91,65.5107"/>
	</g>
	<g>
		<polygon fill="#FFC20E" points="155.1738,26.8892 164.7324,22.9736 152.2637,19.5742 144.9316,1.126 138.3418,14.5352 
			123.4629,11.4771 133.9668,22.8535 128.3828,37.8633 147.041,30.2197 160.2207,39.5596 		"/>
		<polygon fill="#FFC20E" points="125.0312,26.8101 129.0371,24.2422 123.7207,23.1108 122.2656,18.9937 120.9727,22.5195 
			113.7168,20.9824 119.7441,25.8506 117.6406,31.562 122.7402,28.2856 126.6895,31.4717 		"/>
		<polygon fill="#FFC20E" points="160.3867,6.7251 163.752,4.5684 159.2852,3.6182 158.0645,0.1602 156.9785,3.1216 
			150.8848,1.8306 155.9453,5.9194 154.1797,10.7168 158.4629,7.9648 161.7812,10.6406 		"/>
	</g>
</g>
</svg>
