<svg xmlns="http://www.w3.org/2000/svg" width="165.275" height="83.43" viewBox="0 0 165.275 83.43"><g transform="translate(-2.09 -0.16)"><g transform="translate(2.09 40.108)"><path d="M20.519,53.775a8.348,8.348,0,0,0-8.368-8.3H2.09V71.987H13.035a8.284,8.284,0,0,0,6.221-13.85,8.1,8.1,0,0,0,1.263-4.362M8.83,51.244h3.321a2.534,2.534,0,1,1,0,5.066H8.83Zm4.2,14.971H8.83v-5.08h4.2a2.541,2.541,0,1,1,0,5.08" transform="translate(-2.09 -40.108)" fill="#fff"/><path d="M35.836,44.982a13.873,13.873,0,0,0,0,27.728,13.873,13.873,0,0,0,0-27.728m0,20.528a6.68,6.68,0,0,1,0-13.323,6.681,6.681,0,0,1,0,13.323" transform="translate(-2.09 -40.108)" fill="#fff"/><path d="M65.676,62.925h3.141v1.454a7.476,7.476,0,0,1-3.947,1.132,6.674,6.674,0,1,1,0-13.323,7.292,7.292,0,0,1,4.939,1.888l.7.642L75.368,49.4l-.7-.639a14.463,14.463,0,0,0-9.8-3.779,13.87,13.87,0,1,0,0,27.728,14.473,14.473,0,0,0,3.947-.539v.055h7.2v-16.5H65.676Z" transform="translate(-2.09 -40.108)" fill="#fff"/><path d="M112.961,53.26V72.227H121.5V53.26h8.059V45.105H104.871V53.26Z" transform="translate(-2.09 -40.108)" fill="#fff"/><path d="M167.365,83.59,151.027,40.108H136.361L124.355,72.172h8.891l10.43-26.378,14.8,37.8Z" transform="translate(-2.09 -40.108)" fill="#fff"/><path d="M102.795,52.3l-.012-.025A13.338,13.338,0,0,0,91,44.982,13.873,13.873,0,1,0,104.381,58.84a14.168,14.168,0,0,0-1.586-6.535M91,65.511a6.68,6.68,0,1,1,6.182-6.671A6.441,6.441,0,0,1,91,65.511" transform="translate(-2.09 -40.108)" fill="#fff"/></g><g transform="translate(113.717 0.16)"><path d="M155.174,26.889l9.558-3.916-12.468-3.4L144.932,1.126l-6.59,13.409-14.879-3.058,10.5,11.376-5.584,15.01,18.658-7.644,13.18,9.34Z" transform="translate(-113.717 -0.16)" fill="#fff"/><path d="M125.031,26.81l4.006-2.568-5.316-1.131-1.455-4.117-1.293,3.526-7.256-1.537,6.027,4.868-2.1,5.711,5.1-3.276,3.949,3.186Z" transform="translate(-113.717 -0.16)" fill="#fff"/><path d="M160.387,6.725l3.365-2.157-4.467-.95L158.064.16l-1.085,2.961-6.094-1.291,5.06,4.089-1.765,4.8,4.283-2.752,3.318,2.676Z" transform="translate(-113.717 -0.16)" fill="#fff"/></g></g></svg>